# xmcd
#
# Track frame offsets:
#	150
#	13371
#	32460
#	50028
#	65196
#	84638
#	99562
#	112332
#	133424
#	149117
#	166158
#	182749
#
# Disc length: 2575 seconds
#
# Revision: 0
# Processed by: cddbd v1.5.2PL0 Copyright (c) Steve Scherf et al.
# Submitted via: dBpowerAMP V4.0
#
DISCID=bd0a0d0c
DTITLE=Big Sexy Noise - Big Sexy Noise
DYEAR=2009
DGENRE=Blues
TTITLE0=Gospel Singer
TTITLE1=Kill Your Sons
TTITLE2=Slydell
TTITLE3=Digging The Hole
TTITLE4=Baby Faced Killer
TTITLE5=Bad For Bobby
TTITLE6=Dark Eyes
TTITLE7=Another Man Comin'
TTITLE8=God Is A Bullet
TTITLE9=That Smell
TTITLE10=Your Love Don't Pay My Rent
TTITLE11=Doughboy
EXTD=
EXTT0=
EXTT1=
EXTT2=
EXTT3=
EXTT4=
EXTT5=
EXTT6=
EXTT7=
EXTT8=
EXTT9=
EXTT10=
EXTT11=
PLAYORDER=
